<svg width="212" height="134" viewBox="0 0 212 134" fill="none" xmlns="http://www.w3.org/2000/svg">
<path fill-rule="evenodd" clip-rule="evenodd" d="M10.6547 92.752C10.5422 93.736 10.4859 94.7487 10.4859 95.7902C10.4859 99.9607 11.3882 103.67 13.1928 106.918C15.0375 110.167 17.5839 112.713 20.8322 114.558C24.1205 116.362 27.85 117.265 32.0206 117.265C35.5495 117.265 38.7176 116.583 41.5247 115.219C44.3318 113.856 46.6377 112.071 48.4422 109.866C50.2869 107.66 51.5902 105.274 52.3522 102.708V95.0328L39.2986 95.4173C35.8568 95.5187 32.7642 95.6098 29.9754 95.6479V100.723H43.0285C42.2265 103.129 40.9432 104.973 39.1787 106.257C37.4543 107.54 35.329 108.182 32.8025 108.182C29.1132 108.182 26.2058 107.099 24.0804 104.933C21.9951 102.728 20.9525 99.68 20.9525 95.7902C20.9525 95.6817 20.9534 95.5738 20.9551 95.4666C16.5942 95.1403 13.2945 94.3615 10.6547 92.752ZM56.1357 94.9213C55.7275 96.5463 55.5233 98.2997 55.5233 100.181C55.5233 103.67 56.2452 106.718 57.6888 109.325C59.1325 111.931 61.1376 113.936 63.7041 115.34C66.2706 116.743 69.198 117.445 72.4864 117.445C75.2133 117.445 77.6796 116.944 79.8852 115.941C82.0908 114.939 83.9154 113.555 85.3591 111.791C86.8428 110.026 87.8654 108.041 88.4268 105.836H77.4791C76.4765 108.001 74.692 109.084 72.1255 109.084C70.4011 109.084 68.9374 108.543 67.7343 107.46C66.5714 106.337 65.9097 104.733 65.7493 102.648H89.0284C89.1487 101.605 89.2088 100.602 89.2088 99.6399C89.2088 97.5949 88.9428 95.7051 88.4107 93.9704L78.0992 94.2742C78.4878 95.0439 78.6821 95.9302 78.6821 96.9331H65.8094C65.9411 96.0682 66.1696 95.2959 66.4952 94.6161L56.1357 94.9213ZM94.154 93.8012V116.964H104.44V98.7376C104.44 96.4919 105.022 94.7475 106.185 93.5044C106.203 93.4845 106.222 93.4647 106.241 93.4451L94.154 93.8012ZM115.24 93.18C115.353 93.283 115.462 93.3911 115.568 93.5044C116.731 94.7475 117.313 96.4919 117.313 98.7376V116.964H127.539V97.3541C127.539 95.7164 127.379 94.209 127.058 92.8318L115.24 93.18ZM133.513 92.6417C132.611 94.8714 132.16 97.3846 132.16 100.181C132.16 103.67 132.862 106.718 134.266 109.325C135.709 111.931 137.694 113.936 140.221 115.34C142.787 116.743 145.715 117.445 149.003 117.445C153.174 117.445 156.682 116.322 159.53 114.077C162.377 111.831 164.242 108.743 165.124 104.813H154.176C153.254 107.38 151.469 108.663 148.822 108.663C146.938 108.663 145.434 107.941 144.311 106.497C143.188 105.014 142.627 102.908 142.627 100.181C142.627 97.4544 143.188 95.3691 144.311 93.9254C144.867 93.1901 145.518 92.637 146.261 92.2661L133.513 92.6417ZM151.167 92.1216C152.556 92.6899 153.559 93.8325 154.176 95.5496H165.124C164.822 94.1763 164.404 92.9089 163.872 91.7473L151.167 92.1216ZM169.798 91.5727L180.01 115.821L172.31 132.904H183.378L202.639 87.6143C199.693 89.3578 195.853 90.2099 190.628 90.6935L185.604 104.392L180.743 91.2414C178.959 91.3028 177.064 91.3586 175.049 91.418L169.798 91.5727Z" fill="#1A1A24"/>
<path fill-rule="evenodd" clip-rule="evenodd" d="M88.4377 93.9269C88.0933 92.8043 87.6375 91.7466 87.0703 90.754C85.6667 88.2276 83.7017 86.2827 81.1753 84.9192C78.6489 83.5557 75.7616 82.874 72.5133 82.874C69.1849 82.874 66.2374 83.5758 63.6709 84.9793C61.1044 86.3829 59.0993 88.388 57.6556 90.9946C57.009 92.1954 56.5114 93.4898 56.1627 94.8778L66.5221 94.5726C66.8909 93.8025 67.3842 93.1512 68.0019 92.6187C69.2049 91.6162 70.6686 91.1149 72.393 91.1149C74.1976 91.1149 75.7014 91.6362 76.9045 92.6789C77.4238 93.1289 77.831 93.6462 78.1261 94.2307L88.4377 93.9269ZM106.268 93.4017L94.181 93.7577V83.3552H104.467V87.8065C105.51 86.3228 106.913 85.1598 108.678 84.3177C110.442 83.4354 112.427 82.9943 114.633 82.9943C118.563 82.9943 121.691 84.2776 124.017 86.8441C125.512 88.441 126.535 90.4224 127.085 92.7883L115.267 93.1365C114.144 92.1096 112.689 91.5961 110.903 91.5961C108.97 91.5961 107.425 92.198 106.268 93.4017ZM146.288 92.2226L133.54 92.5982C133.763 92.0463 134.014 91.5118 134.292 90.9946C135.736 88.388 137.721 86.3829 140.248 84.9793C142.814 83.5758 145.742 82.874 149.03 82.874C153.241 82.874 156.749 83.9768 159.557 86.1824C161.429 87.6327 162.876 89.4732 163.899 91.7038L151.194 92.0781C150.507 91.7969 149.725 91.6563 148.849 91.6563C147.899 91.6563 147.045 91.8451 146.288 92.2226ZM202.666 87.5709L204.459 83.3552H193.33L190.655 90.65C195.88 90.1664 199.719 89.3143 202.666 87.5709ZM180.77 91.1979C178.986 91.2593 177.091 91.3151 175.076 91.3745L169.825 91.5292L166.382 83.3552H177.871L180.77 91.1979ZM52.3791 94.9893L39.3255 95.3738C35.8837 95.4753 32.7911 95.5664 30.0023 95.6045V93.1H52.3791V94.9893ZM20.9821 95.4232C16.6212 95.0968 13.3214 94.318 10.6816 92.7085C11.0197 89.7522 11.8658 87.0555 13.2197 84.6184C15.0644 81.3301 17.6109 78.7836 20.8591 76.979C24.1073 75.1344 27.8168 74.212 31.9873 74.212C37.0402 74.212 41.291 75.4351 44.7397 77.8813C48.2286 80.3275 50.5344 83.7161 51.6573 88.0471H40.2884C39.5265 86.6436 38.4237 85.5809 36.98 84.859C35.5765 84.0971 33.9122 83.7161 31.9873 83.7161C28.6589 83.7161 25.9921 84.8189 23.987 87.0245C22.0416 89.1257 21.0399 91.9252 20.9821 95.4232ZM72.05 37.9342V29.6932H44.5602V71.9204H54.8463V54.8371H67.719V46.8367H54.8463V37.9342H72.05ZM91.7725 39.6184C89.9679 40.6611 88.4641 42.1047 87.2611 43.9494V38.3552H76.975V71.9204H87.2611V56.3409C87.2611 53.5738 87.9027 51.649 89.186 50.5662C90.4692 49.4434 92.3941 48.8819 94.9606 48.8819H97.7878V37.9943C95.5822 37.9943 93.5771 38.5357 91.7725 39.6184ZM133.683 57.6041C133.803 56.5614 133.863 55.5589 133.863 54.5964C133.863 51.2279 133.142 48.2804 131.698 45.754C130.294 43.2276 128.329 41.2827 125.803 39.9192C123.277 38.5557 120.389 37.874 117.141 37.874C113.813 37.874 110.865 38.5758 108.299 39.9793C105.732 41.3829 103.727 43.388 102.283 45.9946C100.88 48.6012 100.178 51.649 100.178 55.1378C100.178 58.6267 100.9 61.6744 102.343 64.281C103.787 66.8876 105.792 68.8927 108.359 70.2963C110.925 71.6999 113.853 72.4016 117.141 72.4016C119.868 72.4016 122.334 71.9004 124.54 70.8978C126.745 69.8953 128.57 68.5118 130.014 66.7473C131.497 64.9828 132.52 62.9978 133.081 60.7922H122.134C121.131 62.9577 119.347 64.0404 116.78 64.0404C115.056 64.0404 113.592 63.499 112.389 62.4163C111.226 61.2934 110.564 59.6894 110.404 57.6041H133.683ZM121.532 47.6789C122.735 48.7215 123.337 50.1251 123.337 51.8896H110.464C110.745 50.0449 111.467 48.6213 112.63 47.6187C113.833 46.6162 115.296 46.1149 117.021 46.1149C118.825 46.1149 120.329 46.6362 121.532 47.6789ZM170.268 57.6041C170.389 56.5614 170.449 55.5589 170.449 54.5964C170.449 51.2279 169.727 48.2804 168.283 45.754C166.88 43.2276 164.915 41.2827 162.388 39.9192C159.862 38.5557 156.975 37.874 153.726 37.874C150.398 37.874 147.451 38.5758 144.884 39.9793C142.318 41.3829 140.312 43.388 138.869 45.9946C137.465 48.6012 136.763 51.649 136.763 55.1378C136.763 58.6267 137.485 61.6744 138.929 64.281C140.373 66.8876 142.378 68.8927 144.944 70.2963C147.511 71.6999 150.438 72.4016 153.726 72.4016C156.453 72.4016 158.92 71.9004 161.125 70.8978C163.331 69.8953 165.155 68.5118 166.599 66.7473C168.083 64.9828 169.106 62.9978 169.667 60.7922H158.719C157.717 62.9577 155.932 64.0404 153.366 64.0404C151.641 64.0404 150.177 63.499 148.974 62.4163C147.811 61.2934 147.15 59.6894 146.989 57.6041H170.268ZM158.118 47.6789C159.321 48.7215 159.922 50.1251 159.922 51.8896H147.05C147.33 50.0449 148.052 48.6213 149.215 47.6187C150.418 46.6162 151.882 46.1149 153.606 46.1149C155.411 46.1149 156.915 46.6362 158.118 47.6789Z" fill="#1A1A24"/>
<path d="M32.371 32.825C27.3299 32.7172 22.3194 32.4618 17.2889 32.1425" stroke="#1A1A24" stroke-width="2.93433" stroke-miterlimit="1.5" stroke-linecap="round" stroke-linejoin="round"/>
<path d="M36.4815 22.3926C31.1386 20.3698 26.2204 17.4839 21.1251 14.9464" stroke="#1A1A24" stroke-width="2.93433" stroke-miterlimit="1.5" stroke-linecap="round" stroke-linejoin="round"/>
<path d="M43.7222 14.1462C40.5844 10.5285 37.7515 6.46865 35.9975 2.00854" stroke="#1A1A24" stroke-width="2.93433" stroke-miterlimit="1.5" stroke-linecap="round" stroke-linejoin="round"/>
</svg>
