<svg width="67" height="66" viewBox="0 0 67 66" fill="none" xmlns="http://www.w3.org/2000/svg">
<path d="M61.1667 60.5H6.16675C5.03925 60.5 4.10425 59.565 4.10425 58.4375C4.10425 57.31 5.03925 56.375 6.16675 56.375H61.1667C62.2942 56.375 63.2292 57.31 63.2292 58.4375C63.2292 59.565 62.2942 60.5 61.1667 60.5Z" fill="#427567"/>
<path d="M27.4792 11V60.5H39.8542V11C39.8542 7.975 38.6167 5.5 34.9042 5.5H32.4292C28.7167 5.5 27.4792 7.975 27.4792 11Z" fill="#427567"/>
<path d="M8.91675 27.5V60.5H19.9167V27.5C19.9167 24.475 18.8167 22 15.5167 22H13.3167C10.0167 22 8.91675 24.475 8.91675 27.5Z" fill="#427567"/>
<path d="M47.4167 41.25V60.5H58.4167V41.25C58.4167 38.225 57.3167 35.75 54.0167 35.75H51.8167C48.5167 35.75 47.4167 38.225 47.4167 41.25Z" fill="#427567"/>
</svg>
