<svg width="167" height="166" viewBox="0 0 167 166" fill="none" xmlns="http://www.w3.org/2000/svg">
<path d="M35.444 124.476C45.2048 129.787 54.7135 135.71 64.4531 141.126" stroke="#2E2E2E" stroke-width="2.93433" stroke-miterlimit="1.5" stroke-linecap="round" stroke-linejoin="round"/>
<path d="M90.7446 136.952C83.8798 133.606 77.146 128.107 70.7376 123.943C56.2873 114.554 40.5808 106.903 25.4192 98.7901" stroke="#2E2E2E" stroke-width="2.93433" stroke-miterlimit="1.5" stroke-linecap="round" stroke-linejoin="round"/>
<path d="M19.1491 70.8157C31.7491 77.6806 45.2103 82.8153 57.9946 89.3176C81.2001 101.121 105.103 115.203 126.802 129.643" stroke="#2E2E2E" stroke-width="2.93433" stroke-miterlimit="1.5" stroke-linecap="round" stroke-linejoin="round"/>
<path d="M44.9869 60.6128C66.2699 71.92 87.7494 82.7197 108.673 94.7435" stroke="#2E2E2E" stroke-width="2.93433" stroke-miterlimit="1.5" stroke-linecap="round" stroke-linejoin="round"/>
<path d="M72.0999 53.5161C82.9592 59.4442 94.2269 64.6461 105.14 70.4951" stroke="#2E2E2E" stroke-width="2.93433" stroke-miterlimit="1.5" stroke-linecap="round" stroke-linejoin="round"/>
<path d="M69.2 29.6655C87.9981 40.7319 107.732 49.982 126.779 60.5605" stroke="#2E2E2E" stroke-width="2.93433" stroke-miterlimit="1.5" stroke-linecap="round" stroke-linejoin="round"/>
<path d="M88.6382 19.5708C101.008 26.1474 113.792 32.3315 126.47 38.3213" stroke="#2E2E2E" stroke-width="2.93433" stroke-miterlimit="1.5" stroke-linecap="round" stroke-linejoin="round"/>
</svg>
