<svg width="73" height="69" viewBox="0 0 73 69" fill="none" xmlns="http://www.w3.org/2000/svg">
<path fill-rule="evenodd" clip-rule="evenodd" d="M65.8721 25.426C66.9288 33.7985 67.8558 42.2287 65.8648 50.5322C65.3651 52.6166 63.7604 58.2277 60.5058 56.8589C57.5555 55.6178 57.9319 50.827 58.3715 48.3426C59.7875 40.3426 63.717 33.2298 65.8721 25.426Z" stroke="#2E2E2E" stroke-width="2.93433" stroke-miterlimit="1.5" stroke-linecap="round" stroke-linejoin="round"/>
<path fill-rule="evenodd" clip-rule="evenodd" d="M58.292 20.4043C51.0785 26.6754 45.4506 35.9234 39.0617 43.1079C33.8517 48.9662 25.8938 56.0926 18.1974 58.457C10.7784 60.7359 6.51575 54.1747 11.0483 47.9817C16.9793 39.8778 28.9198 36.8352 37.7034 32.9301C44.6421 29.8449 52.1348 24.7036 58.292 20.4043Z" stroke="#2E2E2E" stroke-width="2.93433" stroke-miterlimit="1.5" stroke-linecap="round" stroke-linejoin="round"/>
<path fill-rule="evenodd" clip-rule="evenodd" d="M53.2459 9.96341C45.0399 13.1565 36.4084 18.4292 27.4126 17.5541C24.9853 17.3178 18.524 15.2853 19.9269 11.5859C21.2965 7.9749 25.323 7.86796 28.5534 7.93449C34.4284 8.0551 40.1913 9.18228 46.0357 9.68116C48.4247 9.8852 50.8652 9.63642 53.2459 9.96341Z" stroke="#2E2E2E" stroke-width="2.93433" stroke-miterlimit="1.5" stroke-linecap="round" stroke-linejoin="round"/>
</svg>
