<svg width="67" height="66" viewBox="0 0 67 66" fill="none" xmlns="http://www.w3.org/2000/svg">
<path d="M23.406 50.8475V22.9075C23.406 21.8075 23.736 20.735 24.341 19.8275L31.8485 8.66249C33.031 6.87499 35.9735 5.60999 38.476 6.54499C41.171 7.45249 42.9585 10.4775 42.381 13.1725L40.951 22.165C40.841 22.99 41.061 23.7325 41.5285 24.31C41.996 24.8325 42.6835 25.1625 43.426 25.1625H54.7285C56.901 25.1625 58.771 26.0425 59.871 27.5825C60.916 29.0675 61.1085 30.9925 60.421 32.945L53.656 53.5425C52.8035 56.9525 49.091 59.73 45.406 59.73H34.681C32.8385 59.73 30.2535 59.0975 29.071 57.915L25.551 55.1925C24.2035 54.175 23.406 52.5525 23.406 50.8475Z" fill="#6487B3"/>
<path d="M14.661 17.5449H11.8285C7.566 17.5449 5.8335 19.1949 5.8335 23.2649V50.9299C5.8335 54.9999 7.566 56.6499 11.8285 56.6499H14.661C18.9235 56.6499 20.656 54.9999 20.656 50.9299V23.2649C20.656 19.1949 18.9235 17.5449 14.661 17.5449Z" fill="#6487B3"/>
</svg>
