<svg width="27" height="26" viewBox="0 0 27 26" fill="none" xmlns="http://www.w3.org/2000/svg">
<path d="M6.92008 15.4656L6.09733 18.537L3.0902 18.6006C2.19151 16.9338 1.68176 15.0266 1.68176 13C1.68176 11.0403 2.15837 9.1922 3.00318 7.56494H3.00383L5.68102 8.05576L6.85379 10.7169C6.60833 11.4325 6.47454 12.2007 6.47454 13C6.47464 13.8675 6.63178 14.6987 6.92008 15.4656Z" fill="#FBBB00"/>
<path d="M25.1116 10.7922C25.2474 11.5071 25.3181 12.2455 25.3181 13C25.3181 13.8461 25.2292 14.6715 25.0597 15.4676C24.4844 18.1767 22.9811 20.5422 20.8987 22.2163L20.898 22.2156L17.526 22.0436L17.0487 19.0643C18.4305 18.2539 19.5104 16.9857 20.0793 15.4676H13.7598V10.7922H20.1715H25.1116Z" fill="#518EF8"/>
<path d="M20.898 22.2158L20.8986 22.2164C18.8733 23.8444 16.3006 24.8184 13.4999 24.8184C8.9993 24.8184 5.08633 22.3028 3.09021 18.6009L6.92008 15.4658C7.91812 18.1294 10.4876 20.0256 13.4999 20.0256C14.7947 20.0256 16.0078 19.6755 17.0486 19.0645L20.898 22.2158Z" fill="#28B446"/>
<path d="M21.0434 3.90265L17.2149 7.03706C16.1376 6.3637 14.8642 5.97471 13.4999 5.97471C10.4194 5.97471 7.80186 7.95781 6.85382 10.7169L3.00382 7.565H3.00317C4.97007 3.77279 8.93239 1.18188 13.4999 1.18188C16.3675 1.18188 18.9967 2.20333 21.0434 3.90265Z" fill="#F14336"/>
</svg>
