<svg width="186" height="176" viewBox="0 0 186 176" fill="none" xmlns="http://www.w3.org/2000/svg">
<path d="M113.312 93.445C107.271 78.587 92.6474 58.5885 74.1678 61.7567C64.0025 64.2173 65.7867 79.6111 67.9564 87.1053C72.4702 102.696 89.5275 121.656 107.602 117.471C118.323 114.989 116.38 100.992 113.312 93.445Z" stroke="#2E2E2E" stroke-width="2.93433" stroke-miterlimit="1.5" stroke-linecap="round" stroke-linejoin="round"/>
<path fill-rule="evenodd" clip-rule="evenodd" d="M85.6046 112C82.1672 109.643 77.7479 104.932 76.628 103.385C74.5357 100.495 72.9319 98.4441 70.8453 94.399C76.1201 90.5841 82.4314 86.7263 87.5551 82.683C89.8952 86.7385 94.4471 94.3496 97.5431 97.8829C92.5582 103.218 89.799 107.481 85.6046 112Z" stroke="#2E2E2E" stroke-width="2.93433" stroke-miterlimit="1.5" stroke-linecap="round" stroke-linejoin="round"/>
<path fill-rule="evenodd" clip-rule="evenodd" d="M87.5386 82.6826C84.4483 85.6633 88.712 91.487 91.6174 94.884C92.8885 96.3702 96.498 98.8669 97.8034 97.6541C101.886 93.861 91.2922 79.8695 87.5386 82.6826Z" stroke="#2E2E2E" stroke-width="2.93433" stroke-miterlimit="1.5" stroke-linecap="round" stroke-linejoin="round"/>
<path fill-rule="evenodd" clip-rule="evenodd" d="M98.7424 126.627C122.312 122.124 122.044 111.977 119.52 96.9763C116.327 78.0071 93.5974 50.8348 72.2598 56.2605C58.6911 59.7106 60.4023 75.6248 55.3753 86.5077C48.2096 102.02 42.0207 110.089 31.5986 123.351C24.2283 132.729 36.0782 148.588 47.8789 149.776C54.2912 150.422 59.921 145.046 65.0293 142.074C75.7509 135.836 86.3667 128.992 98.7424 126.627V126.627Z" stroke="#2E2E2E" stroke-width="2.93433" stroke-miterlimit="1.5" stroke-linecap="round" stroke-linejoin="round"/>
<path d="M69.4913 139.462C60.3992 138.056 50.9783 128.788 45.9537 121.757C43.6663 118.557 41.6894 114.805 41.1943 110.849" stroke="#2E2E2E" stroke-width="2.93433" stroke-miterlimit="1.5" stroke-linecap="round" stroke-linejoin="round"/>
<path d="M37.5522 134.772C38.9731 137.242 40.8879 139.496 43.3512 140.963" stroke="#2E2E2E" stroke-width="2.93433" stroke-miterlimit="1.5" stroke-linecap="round" stroke-linejoin="round"/>
<path d="M42.0329 129.599C43.6926 132.186 45.863 134.293 48.5909 135.727" stroke="#2E2E2E" stroke-width="2.93433" stroke-miterlimit="1.5" stroke-linecap="round" stroke-linejoin="round"/>
<path fill-rule="evenodd" clip-rule="evenodd" d="M72.4675 137.713C69.4239 139.509 63.0548 143.101 58.8604 146.105C59.0197 146.331 59.3186 146.667 59.4727 146.843C64.7212 152.845 71.2405 159.449 79.354 161.235C83.9629 162.25 88.2785 161.257 91.6901 157.93C93.2644 156.395 94.6306 153.771 93.6042 151.605C91.6599 147.502 84.2771 145.287 80.5856 143.038C78.0004 141.464 74.7626 139.701 72.4675 137.713Z" stroke="#2E2E2E" stroke-width="2.93433" stroke-miterlimit="1.5" stroke-linecap="round" stroke-linejoin="round"/>
<path d="M74.801 136.384C72.5852 137.572 69.9828 139.15 67.5087 140.61C69.3731 142.391 71.8351 144.542 74.1315 145.754C75.1163 146.273 76.1558 146.809 77.3053 146.722C77.7622 146.687 78.2218 146.533 78.6375 146.345C79.8714 145.787 82.9296 144.277 82.4347 142.491C82.113 141.332 80.8213 140.498 79.8822 139.872C78.1864 138.741 76.5387 137.536 74.9068 136.315" stroke="#2E2E2E" stroke-width="2.93433" stroke-miterlimit="1.5" stroke-linecap="round" stroke-linejoin="round"/>
<path d="M128.229 111.974C135.077 111.499 141.921 110.84 148.788 110.607C145.667 107.824 143.186 103.497 140.693 100.192C147.935 96.6898 155.366 93.2052 162.369 89.2739C156.167 86.6285 149.907 82.3859 144.33 78.7268C150.804 74.1883 156.98 69.1937 163.132 64.2374C154.239 61.8754 145.274 59.241 136.244 57.5141C138.791 49.0486 140.903 40.429 143.789 32.0743C135.084 35.0722 126.216 37.6215 117.532 40.6779C117.429 32.6394 118.094 24.5218 118.266 16.4857C109.691 22.9019 101.83 30.185 93.045 36.3492C90.8254 30.6029 88.7629 24.7999 86.2223 19.1844C83.0239 25.7282 79.8989 32.28 76.302 38.6181C73.8246 35.8742 71.3301 33.1654 68.7317 30.5337C68.6314 36.1314 69.0723 41.7204 69.541 47.2947" stroke="#2E2E2E" stroke-width="2.93433" stroke-miterlimit="1.5" stroke-linecap="round" stroke-linejoin="round"/>
</svg>
