<svg width="74" height="79" viewBox="0 0 74 79" fill="none" xmlns="http://www.w3.org/2000/svg">
<path fill-rule="evenodd" clip-rule="evenodd" d="M57.2022 22.3933C58.2901 19.7353 60.4193 15.9711 59.4461 10.8944C58.4477 5.68549 51.6955 1.96428 46.1116 2.87356C40.3641 3.80925 37.528 8.05895 34.9 13.0891C27.9276 26.4329 17.4459 44.9972 13.0239 56.0508C12.7811 56.6575 14.7267 66.2745 15.7354 71.3555C16.1286 73.3357 16.378 75.7902 18.4687 76.7581C20.5473 77.7205 22.7249 76.4631 24.4643 75.3378C28.4134 72.7826 31.9257 69.6041 35.4521 66.5108C36.8347 65.2981 50.744 36.4655 57.2022 22.3933V22.3933Z" stroke="#2E2E2E" stroke-width="2.93433" stroke-miterlimit="1.5" stroke-linecap="round" stroke-linejoin="round"/>
<path fill-rule="evenodd" clip-rule="evenodd" d="M36.957 9.54288C36.2427 10.6507 35.5815 11.844 34.9332 13.085C33.7562 15.3373 32.4792 17.7387 31.1485 20.2268C31.3506 20.273 31.5509 20.3189 31.7502 20.3637C39.1388 22.0215 47.129 26.1085 53.0859 31.2906C54.6363 28.0038 56.0594 24.9518 57.2354 22.3893C57.3549 22.0976 57.4868 21.7927 57.6257 21.4742C52.2492 15.5582 44.8405 10.6224 36.957 9.54288V9.54288Z" stroke="#2E2E2E" stroke-width="2.93433" stroke-miterlimit="1.5" stroke-linecap="round" stroke-linejoin="round"/>
<path d="M13.0025 56.2438C13.5846 55.8397 14.9087 55.4177 15.6082 55.2405C19.3203 54.3004 21.1517 58.1438 21.6954 61.1309C22.4244 60.1891 23.3867 59.2583 24.52 58.815C27.8484 57.5132 29.8944 60.3112 29.639 63.3908C32.0672 61.9788 36.3505 62.3344 35.5843 66.343" stroke="#2E2E2E" stroke-width="2.93433" stroke-miterlimit="1.5" stroke-linecap="round" stroke-linejoin="round"/>
<path d="M15.1411 68.2681C17.3273 67.6109 19.8186 67.7818 22.0951 68.5807C24.4669 69.413 26.6055 70.9271 27.9229 72.8965" stroke="#2E2E2E" stroke-width="2.93433" stroke-miterlimit="1.5" stroke-linecap="round" stroke-linejoin="round"/>
<path d="M21.6818 61.1245C23.2646 56.9102 26.0504 50.2171 28.2543 45.6409C31.7695 38.342 35.6593 30.0204 39.4817 22.8806" stroke="#2E2E2E" stroke-width="2.93433" stroke-miterlimit="1.5" stroke-linecap="round" stroke-linejoin="round"/>
<path d="M29.6415 63.3852C35.6459 51.9118 40.8374 38.2369 47.3325 27.0255" stroke="#2E2E2E" stroke-width="2.93433" stroke-miterlimit="1.5" stroke-linecap="round" stroke-linejoin="round"/>
</svg>
