<svg width="32" height="33" viewBox="0 0 32 33" fill="none" xmlns="http://www.w3.org/2000/svg">
<path opacity="0.4" d="M3.69334 13.8334C3.12001 13.8334 2.66667 13.3801 2.66667 12.8067V9.72675C2.66667 6.11341 5.61334 3.16675 9.22667 3.16675H12.3067C12.88 3.16675 13.3333 3.62008 13.3333 4.19341C13.3333 4.76675 12.88 5.22008 12.3067 5.22008H9.22667C6.73334 5.22008 4.72 7.24675 4.72 9.72675V12.8067C4.72 13.3801 4.25334 13.8334 3.69334 13.8334Z" fill="#745DF5"/>
<path opacity="0.4" d="M28.3067 13.8334C27.7467 13.8334 27.28 13.3801 27.28 12.8067V9.72675C27.28 7.23341 25.2533 5.22008 22.7733 5.22008H19.6933C19.12 5.22008 18.6667 4.75341 18.6667 4.19341C18.6667 3.63341 19.12 3.16675 19.6933 3.16675H22.7733C26.3867 3.16675 29.3333 6.11341 29.3333 9.72675V12.8067C29.3333 13.3801 28.88 13.8334 28.3067 13.8334Z" fill="#745DF5"/>
<path d="M22.7733 29.8334H20.92C20.36 29.8334 19.8933 29.3801 19.8933 28.8067C19.8933 28.2467 20.3467 27.7801 20.92 27.7801H22.7733C25.2667 27.7801 27.28 25.7534 27.28 23.2734V21.4334C27.28 20.8734 27.7333 20.4067 28.3067 20.4067C28.8667 20.4067 29.3333 20.8601 29.3333 21.4334V23.2734C29.3333 26.8867 26.3867 29.8334 22.7733 29.8334Z" fill="#745DF5"/>
<path d="M12.3067 29.8334H9.22667C5.61334 29.8334 2.66667 26.8867 2.66667 23.2734V20.1934C2.66667 19.6201 3.12001 19.1667 3.69334 19.1667C4.26667 19.1667 4.72 19.6201 4.72 20.1934V23.2734C4.72 25.7667 6.74667 27.7801 9.22667 27.7801H12.3067C12.8667 27.7801 13.3333 28.2334 13.3333 28.8067C13.3333 29.3801 12.88 29.8334 12.3067 29.8334Z" fill="#745DF5"/>
<path d="M24.6133 15.4734H22.8H9.2H7.38667C6.81333 15.4734 6.36 15.9401 6.36 16.5001C6.36 17.0601 6.81333 17.5267 7.38667 17.5267H9.2H22.8H24.6133C25.1867 17.5267 25.64 17.0601 25.64 16.5001C25.64 15.9401 25.1867 15.4734 24.6133 15.4734Z" fill="#745DF5"/>
<path d="M9.2 19.0866V19.5266C9.2 21.74 10.9867 23.5266 13.2 23.5266H18.8C21.0133 23.5266 22.8 21.74 22.8 19.5266V19.0866C22.8 18.9266 22.68 18.8066 22.52 18.8066H9.48C9.32 18.8066 9.2 18.9266 9.2 19.0866Z" fill="#745DF5"/>
<path opacity="0.4" d="M9.2 13.9134V13.4734C9.2 11.2601 10.9867 9.47339 13.2 9.47339H18.8C21.0133 9.47339 22.8 11.2601 22.8 13.4734V13.9134C22.8 14.0734 22.68 14.1934 22.52 14.1934H9.48C9.32 14.1934 9.2 14.0734 9.2 13.9134Z" fill="#745DF5"/>
</svg>
