<svg width="66" height="66" viewBox="0 0 66 66" fill="none" xmlns="http://www.w3.org/2000/svg">
<path d="M33 12.7876C19.855 12.7876 9.15747 23.4851 9.15747 36.6301C9.15747 49.7751 19.855 60.5001 33 60.5001C46.145 60.5001 56.8425 49.8026 56.8425 36.6576C56.8425 23.5126 46.145 12.7876 33 12.7876ZM35.0625 35.7501C35.0625 36.8776 34.1275 37.8126 33 37.8126C31.8725 37.8126 30.9375 36.8776 30.9375 35.7501V22.0001C30.9375 20.8726 31.8725 19.9376 33 19.9376C34.1275 19.9376 35.0625 20.8726 35.0625 22.0001V35.7501Z" fill="#A13737" fill-opacity="0.5"/>
<path d="M40.9475 9.4875H25.0525C23.9525 9.4875 23.0725 8.6075 23.0725 7.5075C23.0725 6.4075 23.9525 5.5 25.0525 5.5H40.9475C42.0475 5.5 42.9275 6.38 42.9275 7.48C42.9275 8.58 42.0475 9.4875 40.9475 9.4875Z" fill="#A13737" fill-opacity="0.5"/>
</svg>
