<svg width="24" height="24" viewBox="0 0 24 24" fill="none" xmlns="http://www.w3.org/2000/svg">
  <path d="M19.5 3.75H17.25C16.0073 3.75 14.8156 4.23497 13.9279 5.10571C13.0402 5.97645 12.5417 7.14946 12.5333 8.37667L12.5 11.5H10.25V15.5H12.5V23H16.5V15.5H19.5L20.5 11.5H16.5V8.75C16.5 8.55109 16.579 8.36032 16.7197 8.21967C16.8603 8.07902 17.0511 8 17.25 8H19.5V3.75Z" stroke="currentColor" stroke-width="1.5" stroke-linecap="round" stroke-linejoin="round"/>
  <path d="M22 12C22 17.5228 17.5228 22 12 22C6.47715 22 2 17.5228 2 12C2 6.47715 6.47715 2 12 2C17.5228 2 22 6.47715 22 12Z" stroke="currentColor" stroke-width="1.5"/>
</svg> 