<svg xmlns="http://www.w3.org/2000/svg" xmlns:xlink="http://www.w3.org/1999/xlink" contentStyleType="text/css" data-diagram-type="ACTIVITY" height="1627px" preserveAspectRatio="none" style="width:1118px;height:1627px;background:#FFFFFF;" version="1.1" viewBox="0 0 1118 1627" width="1118px" zoomAndPan="magnify"><defs/><g><rect fill="#FFFFFF" height="20.9531" style="stroke:#FFFFFF;stroke-width:1;" width="1095.6987" x="10" y="7.7451"/><ellipse cx="136.6162" cy="43.6982" fill="#FFFFFF" rx="10" ry="10" style="stroke:#000000;stroke-width:1;"/><rect fill="#FFFFFF" height="33.9688" rx="12.5" ry="12.5" style="stroke:#000000;stroke-width:1;" width="152.8379" x="60.1973" y="73.6982"/><text fill="#000000" font-family="Verdana" font-size="12" lengthAdjust="spacing" textLength="132.8379" x="70.1973" y="94.8369">Login or Guest Access</text><rect fill="#FFFFFF" height="47.9375" rx="12.5" ry="12.5" style="stroke:#000000;stroke-width:1;" width="241.2324" x="16" y="127.667"/><text fill="#000000" font-family="Verdana" font-size="12" lengthAdjust="spacing" textLength="70.8809" x="26" y="148.8057">Post Project</text><text fill="#000000" font-family="Verdana" font-size="12" lengthAdjust="spacing" textLength="221.2324" x="26" y="162.7744">(Title, Description, Budget, Timeline)</text><rect fill="#FFFFFF" height="33.9688" rx="12.5" ry="12.5" style="stroke:#000000;stroke-width:1;" width="124.8301" x="74.2012" y="681.3232"/><text fill="#000000" font-family="Verdana" font-size="12" lengthAdjust="spacing" textLength="104.8301" x="84.2012" y="702.4619">Review Proposals</text><rect fill="#FFFFFF" height="33.9688" rx="12.5" ry="12.5" style="stroke:#000000;stroke-width:1;" width="140.6445" x="66.2939" y="1436.9795"/><text fill="#000000" font-family="Verdana" font-size="12" lengthAdjust="spacing" textLength="120.6445" x="76.2939" y="1458.1182">Leave Team Review</text><line style="stroke:#000000;stroke-width:1;" x1="10" x2="10" y1="7.7451" y2="1620.8857"/><rect fill="#FFFFFF" height="33.9688" rx="12.5" ry="12.5" style="stroke:#000000;stroke-width:1;" width="131.9492" x="378.4014" y="195.6045"/><text fill="#000000" font-family="Verdana" font-size="12" lengthAdjust="spacing" textLength="111.9492" x="388.4014" y="216.7432">Save Project to DB</text><rect fill="#FFFFFF" height="33.9688" rx="12.5" ry="12.5" style="stroke:#000000;stroke-width:1;" width="141.3945" x="373.6787" y="465.4482"/><text fill="#000000" font-family="Verdana" font-size="12" lengthAdjust="spacing" textLength="121.3945" x="383.6787" y="486.5869">Validate Team Code</text><rect fill="#FFFFFF" height="33.9688" rx="12.5" ry="12.5" style="stroke:#000000;stroke-width:1;" width="211.291" x="338.7305" y="519.417"/><text fill="#000000" font-family="Verdana" font-size="12" lengthAdjust="spacing" textLength="191.291" x="348.7305" y="540.5557">Create Team Board (Auto-Sync)</text><polygon fill="#FFFFFF" points="375.1855,735.292,513.5664,735.292,525.5664,747.292,513.5664,759.292,375.1855,759.292,363.1855,747.292,375.1855,735.292" style="stroke:#000000;stroke-width:1;"/><text fill="#000000" font-family="Verdana" font-size="11" lengthAdjust="spacing" textLength="138.3809" x="375.1855" y="751.1001">Wait for more proposals?</text><text fill="#000000" font-family="Verdana" font-size="11" lengthAdjust="spacing" textLength="19.0083" x="344.1772" y="744.6978">yes</text><text fill="#000000" font-family="Verdana" font-size="11" lengthAdjust="spacing" textLength="13.7017" x="525.5664" y="744.6978">no</text><rect fill="#FFFFFF" height="33.9688" rx="12.5" ry="12.5" style="stroke:#000000;stroke-width:1;" width="112.9648" x="296.7031" y="769.292"/><text fill="#000000" font-family="Verdana" font-size="12" lengthAdjust="spacing" textLength="92.9648" x="306.7031" y="790.4307">Reject Proposal</text><rect fill="#FFFFFF" height="33.9688" rx="12.5" ry="12.5" style="stroke:#000000;stroke-width:1;" width="92.9199" x="489.1064" y="769.292"/><text fill="#000000" font-family="Verdana" font-size="12" lengthAdjust="spacing" textLength="72.9199" x="499.1064" y="790.4307">Lock Project</text><rect fill="#FFFFFF" height="33.9688" rx="12.5" ry="12.5" style="stroke:#000000;stroke-width:1;" width="137" x="467.0664" y="823.2607"/><text fill="#000000" font-family="Verdana" font-size="12" lengthAdjust="spacing" textLength="117" x="477.0664" y="844.3994">Create Team Board</text><polygon fill="#FFFFFF" points="444.376,863.2295,456.376,875.2295,444.376,887.2295,432.376,875.2295,444.376,863.2295" style="stroke:#000000;stroke-width:1;"/><polygon fill="#FFFFFF" points="405.3953,907.2295,483.3567,907.2295,495.3567,919.2295,483.3567,931.2295,405.3953,931.2295,393.3953,919.2295,405.3953,907.2295" style="stroke:#000000;stroke-width:1;"/><text fill="#000000" font-family="Verdana" font-size="11" lengthAdjust="spacing" textLength="77.9614" x="405.3953" y="923.0376">Accept Team?</text><text fill="#000000" font-family="Verdana" font-size="11" lengthAdjust="spacing" textLength="19.0083" x="374.387" y="916.6353">yes</text><text fill="#000000" font-family="Verdana" font-size="11" lengthAdjust="spacing" textLength="13.7017" x="495.3567" y="916.6353">no</text><rect fill="#FFFFFF" height="33.9688" rx="12.5" ry="12.5" style="stroke:#000000;stroke-width:1;" width="181.0098" x="270.3774" y="941.2295"/><text fill="#000000" font-family="Verdana" font-size="12" lengthAdjust="spacing" textLength="161.0098" x="280.3774" y="962.3682">Approve Final Deliverables</text><rect fill="#FFFFFF" height="33.9688" rx="12.5" ry="12.5" style="stroke:#000000;stroke-width:1;" width="124.3145" x="298.7251" y="995.1982"/><text fill="#000000" font-family="Verdana" font-size="12" lengthAdjust="spacing" textLength="104.3145" x="308.7251" y="1016.3369">Release Payment</text><rect fill="#FFFFFF" height="33.9688" rx="12.5" ry="12.5" style="stroke:#000000;stroke-width:1;" width="112.9648" x="471.3872" y="941.2295"/><text fill="#000000" font-family="Verdana" font-size="12" lengthAdjust="spacing" textLength="92.9648" x="481.3872" y="962.3682">Reject Proposal</text><ellipse cx="527.8696" cy="1006.1982" fill="none" rx="11" ry="11" style="stroke:#000000;stroke-width:1;"/><ellipse cx="527.8696" cy="1006.1982" fill="#FFFFFF" rx="6" ry="6" style="stroke:#000000;stroke-width:1;"/><rect fill="#FFFFFF" height="33.9688" rx="12.5" ry="12.5" style="stroke:#000000;stroke-width:1;" width="122.8848" x="382.9336" y="1049.167"/><text fill="#000000" font-family="Verdana" font-size="12" lengthAdjust="spacing" textLength="102.8848" x="392.9336" y="1070.3057">Process Payment</text><polygon fill="#FFFFFF" points="393.2432,1103.1357,495.5088,1103.1357,507.5088,1115.1357,495.5088,1127.1357,393.2432,1127.1357,381.2432,1115.1357,393.2432,1103.1357" style="stroke:#000000;stroke-width:1;"/><text fill="#000000" font-family="Verdana" font-size="11" lengthAdjust="spacing" textLength="102.2656" x="393.2432" y="1118.9438">Payment Success?</text><text fill="#000000" font-family="Verdana" font-size="11" lengthAdjust="spacing" textLength="19.0083" x="362.2349" y="1112.5415">yes</text><text fill="#000000" font-family="Verdana" font-size="11" lengthAdjust="spacing" textLength="13.7017" x="507.5088" y="1112.5415">no</text><rect fill="#FFFFFF" height="33.9688" rx="12.5" ry="12.5" style="stroke:#000000;stroke-width:1;" width="162.4004" x="267.2324" y="1137.1357"/><text fill="#000000" font-family="Verdana" font-size="12" lengthAdjust="spacing" textLength="142.4004" x="277.2324" y="1158.2744">Update Payment Status</text><rect fill="#FFFFFF" height="33.9688" rx="12.5" ry="12.5" style="stroke:#000000;stroke-width:1;" width="181.373" x="449.6328" y="1137.1357"/><text fill="#000000" font-family="Verdana" font-size="12" lengthAdjust="spacing" textLength="161.373" x="459.6328" y="1158.2744">Notify Failure (Retry Logic)</text><polygon fill="#FFFFFF" points="444.376,1177.1045,456.376,1189.1045,444.376,1201.1045,432.376,1189.1045,444.376,1177.1045" style="stroke:#000000;stroke-width:1;"/><rect fill="#FFFFFF" height="33.9688" rx="12.5" ry="12.5" style="stroke:#000000;stroke-width:1;" width="218.5742" x="335.0889" y="1490.9482"/><text fill="#000000" font-family="Verdana" font-size="12" lengthAdjust="spacing" textLength="198.5742" x="345.0889" y="1512.0869">Send Notifications (Email/In-App)</text><rect fill="#FFFFFF" height="33.9688" rx="12.5" ry="12.5" style="stroke:#000000;stroke-width:1;" width="152.9023" x="367.9248" y="1544.917"/><text fill="#000000" font-family="Verdana" font-size="12" lengthAdjust="spacing" textLength="132.9023" x="377.9248" y="1566.0557">Logout after Inactivity</text><ellipse cx="444.376" cy="1609.8857" fill="none" rx="11" ry="11" style="stroke:#000000;stroke-width:1;"/><ellipse cx="444.376" cy="1609.8857" fill="#FFFFFF" rx="6" ry="6" style="stroke:#000000;stroke-width:1;"/><line style="stroke:#000000;stroke-width:1;" x1="261.2324" x2="261.2324" y1="7.7451" y2="1620.8857"/><rect fill="#FFFFFF" height="33.9688" rx="12.5" ry="12.5" style="stroke:#000000;stroke-width:1;" width="97.707" x="736.9121" y="249.5732"/><text fill="#000000" font-family="Verdana" font-size="12" lengthAdjust="spacing" textLength="77.707" x="746.9121" y="270.7119">Create Team</text><rect fill="#FFFFFF" height="33.9688" rx="12.5" ry="12.5" style="stroke:#000000;stroke-width:1;" width="195.6992" x="687.916" y="303.542"/><text fill="#000000" font-family="Verdana" font-size="12" lengthAdjust="spacing" textLength="175.6992" x="697.916" y="324.6807">Invite Members (Share Code)</text><rect fill="#FFFFFF" height="33.9688" rx="12.5" ry="12.5" style="stroke:#000000;stroke-width:1;" width="185.8906" x="692.8203" y="357.5107"/><text fill="#000000" font-family="Verdana" font-size="12" lengthAdjust="spacing" textLength="165.8906" x="702.8203" y="378.6494">Triggers Team Notifications</text><rect fill="#FFFFFF" height="33.9688" rx="12.5" ry="12.5" style="stroke:#000000;stroke-width:1;" width="243.0137" x="664.2588" y="573.3857"/><text fill="#000000" font-family="Verdana" font-size="12" lengthAdjust="spacing" textLength="223.0137" x="674.2588" y="594.5244">Apply for Projects (Submit Proposals)</text><rect fill="#FFFFFF" height="33.9688" rx="12.5" ry="12.5" style="stroke:#000000;stroke-width:1;" width="193.7188" x="688.9063" y="1221.1045"/><text fill="#000000" font-family="Verdana" font-size="12" lengthAdjust="spacing" textLength="173.7188" x="698.9063" y="1242.2432">Add/Remove Team Members</text><rect fill="#FFFFFF" height="33.9688" rx="12.5" ry="12.5" style="stroke:#000000;stroke-width:1;" width="172.5078" x="699.5117" y="1275.0732"/><text fill="#000000" font-family="Verdana" font-size="12" lengthAdjust="spacing" textLength="152.5078" x="709.5117" y="1296.2119">Assign Tasks to Members</text><rect fill="#FFFFFF" height="33.9688" rx="12.5" ry="12.5" style="stroke:#000000;stroke-width:1;" width="289.5195" x="641.0059" y="1329.042"/><text fill="#000000" font-family="Verdana" font-size="12" lengthAdjust="spacing" textLength="269.5195" x="651.0059" y="1350.1807">Monitor Progress (Pending/In Progress/Done)</text><rect fill="#FFFFFF" height="33.9688" rx="12.5" ry="12.5" style="stroke:#000000;stroke-width:1;" width="141.6289" x="714.9512" y="1383.0107"/><text fill="#000000" font-family="Verdana" font-size="12" lengthAdjust="spacing" textLength="121.6289" x="724.9512" y="1404.1494">Leave Client Review</text><line style="stroke:#000000;stroke-width:1;" x1="635.0059" x2="635.0059" y1="7.7451" y2="1620.8857"/><rect fill="#FFFFFF" height="33.9688" rx="12.5" ry="12.5" style="stroke:#000000;stroke-width:1;" width="159.3125" x="940.5254" y="411.4795"/><text fill="#000000" font-family="Verdana" font-size="12" lengthAdjust="spacing" textLength="139.3125" x="950.5254" y="432.6182">Join Team (Enter Code)</text><rect fill="#FFFFFF" height="33.9688" rx="12.5" ry="12.5" style="stroke:#000000;stroke-width:1;" width="148.291" x="946.0361" y="627.3545"/><text fill="#000000" font-family="Verdana" font-size="12" lengthAdjust="spacing" textLength="128.291" x="956.0361" y="648.4932">Search/Apply for Jobs</text><line style="stroke:#000000;stroke-width:1;" x1="934.5254" x2="934.5254" y1="7.7451" y2="1620.8857"/><line style="stroke:#000000;stroke-width:1;" x1="1103.8379" x2="1103.8379" y1="7.7451" y2="1620.8857"/><line style="stroke:#000000;stroke-width:1;" x1="136.6162" x2="136.6162" y1="53.6982" y2="73.6982"/><polygon fill="#000000" points="132.6162,63.6982,136.6162,73.6982,140.6162,63.6982,136.6162,67.6982" style="stroke:#000000;stroke-width:1;"/><line style="stroke:#000000;stroke-width:1;" x1="136.6162" x2="136.6162" y1="107.667" y2="127.667"/><polygon fill="#000000" points="132.6162,117.667,136.6162,127.667,140.6162,117.667,136.6162,121.667" style="stroke:#000000;stroke-width:1;"/><line style="stroke:#000000;stroke-width:1;" x1="444.376" x2="444.376" y1="499.417" y2="519.417"/><polygon fill="#000000" points="440.376,509.417,444.376,519.417,448.376,509.417,444.376,513.417" style="stroke:#000000;stroke-width:1;"/><line style="stroke:#000000;stroke-width:1;" x1="535.5664" x2="535.5664" y1="803.2607" y2="823.2607"/><polygon fill="#000000" points="531.5664,813.2607,535.5664,823.2607,539.5664,813.2607,535.5664,817.2607" style="stroke:#000000;stroke-width:1;"/><line style="stroke:#000000;stroke-width:1;" x1="363.1855" x2="353.1855" y1="747.292" y2="747.292"/><line style="stroke:#000000;stroke-width:1;" x1="353.1855" x2="353.1855" y1="747.292" y2="769.292"/><polygon fill="#000000" points="349.1855,759.292,353.1855,769.292,357.1855,759.292,353.1855,763.292" style="stroke:#000000;stroke-width:1;"/><line style="stroke:#000000;stroke-width:1;" x1="525.5664" x2="535.5664" y1="747.292" y2="747.292"/><line style="stroke:#000000;stroke-width:1;" x1="535.5664" x2="535.5664" y1="747.292" y2="769.292"/><polygon fill="#000000" points="531.5664,759.292,535.5664,769.292,539.5664,759.292,535.5664,763.292" style="stroke:#000000;stroke-width:1;"/><line style="stroke:#000000;stroke-width:1;" x1="353.1855" x2="353.1855" y1="803.2607" y2="875.2295"/><line style="stroke:#000000;stroke-width:1;" x1="353.1855" x2="432.376" y1="875.2295" y2="875.2295"/><polygon fill="#000000" points="422.376,871.2295,432.376,875.2295,422.376,879.2295,426.376,875.2295" style="stroke:#000000;stroke-width:1;"/><line style="stroke:#000000;stroke-width:1;" x1="535.5664" x2="535.5664" y1="857.2295" y2="875.2295"/><line style="stroke:#000000;stroke-width:1;" x1="535.5664" x2="456.376" y1="875.2295" y2="875.2295"/><polygon fill="#000000" points="466.376,871.2295,456.376,875.2295,466.376,879.2295,462.376,875.2295" style="stroke:#000000;stroke-width:1;"/><line style="stroke:#000000;stroke-width:1;" x1="360.8823" x2="360.8823" y1="975.1982" y2="995.1982"/><polygon fill="#000000" points="356.8823,985.1982,360.8823,995.1982,364.8823,985.1982,360.8823,989.1982" style="stroke:#000000;stroke-width:1;"/><line style="stroke:#000000;stroke-width:1;" x1="527.8696" x2="527.8696" y1="975.1982" y2="995.1982"/><polygon fill="#000000" points="523.8696,985.1982,527.8696,995.1982,531.8696,985.1982,527.8696,989.1982" style="stroke:#000000;stroke-width:1;"/><line style="stroke:#000000;stroke-width:1;" x1="393.3953" x2="360.8823" y1="919.2295" y2="919.2295"/><line style="stroke:#000000;stroke-width:1;" x1="360.8823" x2="360.8823" y1="919.2295" y2="941.2295"/><polygon fill="#000000" points="356.8823,931.2295,360.8823,941.2295,364.8823,931.2295,360.8823,935.2295" style="stroke:#000000;stroke-width:1;"/><line style="stroke:#000000;stroke-width:1;" x1="495.3567" x2="527.8696" y1="919.2295" y2="919.2295"/><line style="stroke:#000000;stroke-width:1;" x1="527.8696" x2="527.8696" y1="919.2295" y2="941.2295"/><polygon fill="#000000" points="523.8696,931.2295,527.8696,941.2295,531.8696,931.2295,527.8696,935.2295" style="stroke:#000000;stroke-width:1;"/><line style="stroke:#000000;stroke-width:1;" x1="360.8823" x2="360.8823" y1="1029.167" y2="1034.167"/><line style="stroke:#000000;stroke-width:1;" x1="360.8823" x2="444.376" y1="1034.167" y2="1034.167"/><line style="stroke:#000000;stroke-width:1;" x1="444.376" x2="444.376" y1="1034.167" y2="1049.167"/><polygon fill="#000000" points="440.376,1039.167,444.376,1049.167,448.376,1039.167,444.376,1043.167" style="stroke:#000000;stroke-width:1;"/><line style="stroke:#000000;stroke-width:1;" x1="444.376" x2="444.376" y1="887.2295" y2="907.2295"/><polygon fill="#000000" points="440.376,897.2295,444.376,907.2295,448.376,897.2295,444.376,901.2295" style="stroke:#000000;stroke-width:1;"/><line style="stroke:#000000;stroke-width:1;" x1="381.2432" x2="348.4326" y1="1115.1357" y2="1115.1357"/><line style="stroke:#000000;stroke-width:1;" x1="348.4326" x2="348.4326" y1="1115.1357" y2="1137.1357"/><polygon fill="#000000" points="344.4326,1127.1357,348.4326,1137.1357,352.4326,1127.1357,348.4326,1131.1357" style="stroke:#000000;stroke-width:1;"/><line style="stroke:#000000;stroke-width:1;" x1="507.5088" x2="540.3193" y1="1115.1357" y2="1115.1357"/><line style="stroke:#000000;stroke-width:1;" x1="540.3193" x2="540.3193" y1="1115.1357" y2="1137.1357"/><polygon fill="#000000" points="536.3193,1127.1357,540.3193,1137.1357,544.3193,1127.1357,540.3193,1131.1357" style="stroke:#000000;stroke-width:1;"/><line style="stroke:#000000;stroke-width:1;" x1="348.4326" x2="348.4326" y1="1171.1045" y2="1189.1045"/><line style="stroke:#000000;stroke-width:1;" x1="348.4326" x2="432.376" y1="1189.1045" y2="1189.1045"/><polygon fill="#000000" points="422.376,1185.1045,432.376,1189.1045,422.376,1193.1045,426.376,1189.1045" style="stroke:#000000;stroke-width:1;"/><line style="stroke:#000000;stroke-width:1;" x1="540.3193" x2="540.3193" y1="1171.1045" y2="1189.1045"/><line style="stroke:#000000;stroke-width:1;" x1="540.3193" x2="456.376" y1="1189.1045" y2="1189.1045"/><polygon fill="#000000" points="466.376,1185.1045,456.376,1189.1045,466.376,1193.1045,462.376,1189.1045" style="stroke:#000000;stroke-width:1;"/><line style="stroke:#000000;stroke-width:1;" x1="444.376" x2="444.376" y1="1083.1357" y2="1103.1357"/><polygon fill="#000000" points="440.376,1093.1357,444.376,1103.1357,448.376,1093.1357,444.376,1097.1357" style="stroke:#000000;stroke-width:1;"/><line style="stroke:#000000;stroke-width:1;" x1="444.376" x2="444.376" y1="1524.917" y2="1544.917"/><polygon fill="#000000" points="440.376,1534.917,444.376,1544.917,448.376,1534.917,444.376,1538.917" style="stroke:#000000;stroke-width:1;"/><line style="stroke:#000000;stroke-width:1;" x1="444.376" x2="444.376" y1="1578.8857" y2="1598.8857"/><polygon fill="#000000" points="440.376,1588.8857,444.376,1598.8857,448.376,1588.8857,444.376,1592.8857" style="stroke:#000000;stroke-width:1;"/><line style="stroke:#000000;stroke-width:1;" x1="785.7656" x2="785.7656" y1="283.542" y2="303.542"/><polygon fill="#000000" points="781.7656,293.542,785.7656,303.542,789.7656,293.542,785.7656,297.542" style="stroke:#000000;stroke-width:1;"/><line style="stroke:#000000;stroke-width:1;" x1="785.7656" x2="785.7656" y1="337.5107" y2="357.5107"/><polygon fill="#000000" points="781.7656,347.5107,785.7656,357.5107,789.7656,347.5107,785.7656,351.5107" style="stroke:#000000;stroke-width:1;"/><line style="stroke:#000000;stroke-width:1;" x1="785.7656" x2="785.7656" y1="1255.0732" y2="1275.0732"/><polygon fill="#000000" points="781.7656,1265.0732,785.7656,1275.0732,789.7656,1265.0732,785.7656,1269.0732" style="stroke:#000000;stroke-width:1;"/><line style="stroke:#000000;stroke-width:1;" x1="785.7656" x2="785.7656" y1="1309.042" y2="1329.042"/><polygon fill="#000000" points="781.7656,1319.042,785.7656,1329.042,789.7656,1319.042,785.7656,1323.042" style="stroke:#000000;stroke-width:1;"/><line style="stroke:#000000;stroke-width:1;" x1="785.7656" x2="785.7656" y1="1363.0107" y2="1383.0107"/><polygon fill="#000000" points="781.7656,1373.0107,785.7656,1383.0107,789.7656,1373.0107,785.7656,1377.0107" style="stroke:#000000;stroke-width:1;"/><line style="stroke:#000000;stroke-width:1;" x1="136.6162" x2="136.6162" y1="175.6045" y2="180.6045"/><line style="stroke:#000000;stroke-width:1;" x1="136.6162" x2="444.376" y1="180.6045" y2="180.6045"/><line style="stroke:#000000;stroke-width:1;" x1="444.376" x2="444.376" y1="180.6045" y2="195.6045"/><polygon fill="#000000" points="440.376,185.6045,444.376,195.6045,448.376,185.6045,444.376,189.6045" style="stroke:#000000;stroke-width:1;"/><line style="stroke:#000000;stroke-width:1;" x1="444.376" x2="444.376" y1="229.5732" y2="234.5732"/><line style="stroke:#000000;stroke-width:1;" x1="444.376" x2="785.7656" y1="234.5732" y2="234.5732"/><line style="stroke:#000000;stroke-width:1;" x1="785.7656" x2="785.7656" y1="234.5732" y2="249.5732"/><polygon fill="#000000" points="781.7656,239.5732,785.7656,249.5732,789.7656,239.5732,785.7656,243.5732" style="stroke:#000000;stroke-width:1;"/><line style="stroke:#000000;stroke-width:1;" x1="785.7656" x2="785.7656" y1="391.4795" y2="396.4795"/><line style="stroke:#000000;stroke-width:1;" x1="785.7656" x2="1020.1816" y1="396.4795" y2="396.4795"/><line style="stroke:#000000;stroke-width:1;" x1="1020.1816" x2="1020.1816" y1="396.4795" y2="411.4795"/><polygon fill="#000000" points="1016.1816,401.4795,1020.1816,411.4795,1024.1816,401.4795,1020.1816,405.4795" style="stroke:#000000;stroke-width:1;"/><line style="stroke:#000000;stroke-width:1;" x1="1020.1816" x2="1020.1816" y1="445.4482" y2="450.4482"/><line style="stroke:#000000;stroke-width:1;" x1="1020.1816" x2="444.376" y1="450.4482" y2="450.4482"/><line style="stroke:#000000;stroke-width:1;" x1="444.376" x2="444.376" y1="450.4482" y2="465.4482"/><polygon fill="#000000" points="440.376,455.4482,444.376,465.4482,448.376,455.4482,444.376,459.4482" style="stroke:#000000;stroke-width:1;"/><line style="stroke:#000000;stroke-width:1;" x1="444.376" x2="444.376" y1="553.3857" y2="558.3857"/><line style="stroke:#000000;stroke-width:1;" x1="444.376" x2="785.7656" y1="558.3857" y2="558.3857"/><line style="stroke:#000000;stroke-width:1;" x1="785.7656" x2="785.7656" y1="558.3857" y2="573.3857"/><polygon fill="#000000" points="781.7656,563.3857,785.7656,573.3857,789.7656,563.3857,785.7656,567.3857" style="stroke:#000000;stroke-width:1;"/><line style="stroke:#000000;stroke-width:1;" x1="785.7656" x2="785.7656" y1="607.3545" y2="612.3545"/><line style="stroke:#000000;stroke-width:1;" x1="785.7656" x2="1020.1816" y1="612.3545" y2="612.3545"/><line style="stroke:#000000;stroke-width:1;" x1="1020.1816" x2="1020.1816" y1="612.3545" y2="627.3545"/><polygon fill="#000000" points="1016.1816,617.3545,1020.1816,627.3545,1024.1816,617.3545,1020.1816,621.3545" style="stroke:#000000;stroke-width:1;"/><line style="stroke:#000000;stroke-width:1;" x1="1020.1816" x2="1020.1816" y1="661.3232" y2="666.3232"/><line style="stroke:#000000;stroke-width:1;" x1="1020.1816" x2="136.6162" y1="666.3232" y2="666.3232"/><line style="stroke:#000000;stroke-width:1;" x1="136.6162" x2="136.6162" y1="666.3232" y2="681.3232"/><polygon fill="#000000" points="132.6162,671.3232,136.6162,681.3232,140.6162,671.3232,136.6162,675.3232" style="stroke:#000000;stroke-width:1;"/><line style="stroke:#000000;stroke-width:1;" x1="136.6162" x2="136.6162" y1="715.292" y2="720.292"/><line style="stroke:#000000;stroke-width:1;" x1="136.6162" x2="444.376" y1="720.292" y2="720.292"/><line style="stroke:#000000;stroke-width:1;" x1="444.376" x2="444.376" y1="720.292" y2="735.292"/><polygon fill="#000000" points="440.376,725.292,444.376,735.292,448.376,725.292,444.376,729.292" style="stroke:#000000;stroke-width:1;"/><line style="stroke:#000000;stroke-width:1;" x1="444.376" x2="444.376" y1="1201.1045" y2="1206.1045"/><line style="stroke:#000000;stroke-width:1;" x1="444.376" x2="785.7656" y1="1206.1045" y2="1206.1045"/><line style="stroke:#000000;stroke-width:1;" x1="785.7656" x2="785.7656" y1="1206.1045" y2="1221.1045"/><polygon fill="#000000" points="781.7656,1211.1045,785.7656,1221.1045,789.7656,1211.1045,785.7656,1215.1045" style="stroke:#000000;stroke-width:1;"/><line style="stroke:#000000;stroke-width:1;" x1="785.7656" x2="785.7656" y1="1416.9795" y2="1421.9795"/><line style="stroke:#000000;stroke-width:1;" x1="785.7656" x2="136.6162" y1="1421.9795" y2="1421.9795"/><line style="stroke:#000000;stroke-width:1;" x1="136.6162" x2="136.6162" y1="1421.9795" y2="1436.9795"/><polygon fill="#000000" points="132.6162,1426.9795,136.6162,1436.9795,140.6162,1426.9795,136.6162,1430.9795" style="stroke:#000000;stroke-width:1;"/><line style="stroke:#000000;stroke-width:1;" x1="136.6162" x2="136.6162" y1="1470.9482" y2="1475.9482"/><line style="stroke:#000000;stroke-width:1;" x1="136.6162" x2="444.376" y1="1475.9482" y2="1475.9482"/><line style="stroke:#000000;stroke-width:1;" x1="444.376" x2="444.376" y1="1475.9482" y2="1490.9482"/><polygon fill="#000000" points="440.376,1480.9482,444.376,1490.9482,448.376,1480.9482,444.376,1484.9482" style="stroke:#000000;stroke-width:1;"/><text fill="#000000" font-family="Verdana" font-size="18" lengthAdjust="spacing" textLength="52.1104" x="109.561" y="24.4531">Client</text><text fill="#000000" font-family="Verdana" font-size="18" lengthAdjust="spacing" textLength="67.1221" x="414.5581" y="24.4531">System</text><text fill="#000000" font-family="Verdana" font-size="18" lengthAdjust="spacing" textLength="118.3887" x="725.5713" y="24.4531">Team Leader</text><text fill="#000000" font-family="Verdana" font-size="18" lengthAdjust="spacing" textLength="130.3945" x="953.9844" y="24.4531">Team Member</text><!--SRC=[PLFBZjim3BpxAzYR0sIHktqeyjWjiiWMGPosPyMc7NPboP3a50RoyQNaTPp4Hv7Yp90SVdDdh14QAKX5qNKj2PMxHjO9uw9afojIe0tyQD4wMEOvMfj6oLxpQs_qNynT51_9IPp31crkg76arHnMRL6XcyEHQfIaS9OoUjPPX_KrIZ9nmQ4Ud8RDogUFA6hOeIZGy9-rGU4GV90Pj-f2_Fh0-eJ6GfoTXK5Owy8Z9qT3LUNZ0UAdTbHIBhmIUmFkInduNNDF8HI_AeTcGBdJzrj8AWRsa4yV1C5A2rD0l6oTViawbS-c-fTD8pieUNXVZNhLxQccCBb6Mo7jRAekGs7oysAiVjUdqCImckI05y9_8yYzSYeX_YEOmbVMcaVK3D- -pu1thI3kqCuY0CO9unzmqWYbHOYL3jcTpZy7vQaFJDhd0bLG6GLIRut6XUo4Y7incXV-Haf8jeca2nfnacZJNeT4mSnxqTNSuPEEYKe0wtGpS8yxun_UdIDCqFNrWgmDtfre-zM4FT- -EU5Q-oGX-Ac3Dq6ovOd61tIc0tyRVk-3aAVj5yNYWBLl-sw__dQMrbB51XJsqthlZvaFhSZrVgcCRoNUUt1LBRRg5bniTBYcXAaOl7S5z9vui4cV3-HZThn0Hduy5Bw6cZjahXTUM63GbMuTYD8VoLQ9t14VOPT6VW7_0G00]--></g></svg>