<svg width="211" height="133" viewBox="0 0 211 133" fill="none" xmlns="http://www.w3.org/2000/svg">
<rect x="0.0606689" y="14.1197" width="207.81" height="81.5601" rx="18" transform="rotate(-1.68751 0.0606689 14.1197)" fill="white"/>
<path d="M182.5 132.115H171.431L179.131 115.032L168.919 90.7827L174.171 90.6284C176.185 90.5691 178.08 90.5121 179.864 90.4507L184.725 103.602L189.749 89.9019C194.974 89.4183 198.814 88.5683 201.761 86.8247L182.5 132.115ZM87.5291 93.1802C88.0615 94.9152 88.3299 96.8046 88.3299 98.8501C88.3299 99.8126 88.2695 100.815 88.1492 101.858H64.8709C65.0313 103.943 65.6924 105.548 66.8553 106.67C68.0583 107.753 69.5225 108.294 71.2469 108.294C73.8132 108.294 75.5978 107.212 76.6004 105.046H87.5486C86.9872 107.252 85.964 109.237 84.4803 111.001C83.0367 112.766 81.2121 114.149 79.0067 115.152C76.8012 116.154 74.3349 116.656 71.6082 116.656C68.3199 116.656 65.3915 115.954 62.825 114.55C60.2586 113.147 58.254 111.141 56.8104 108.535C55.3668 105.928 54.6444 102.881 54.6443 99.3921C54.6443 97.5102 54.8502 95.7566 55.2586 94.1314L65.618 93.8257C65.2922 94.5057 65.0622 95.2778 64.9305 96.1431H77.8035C77.8035 95.1398 77.6076 94.2538 77.2186 93.4839L87.5291 93.1802ZM145.383 91.4761C144.639 91.847 143.989 92.4008 143.432 93.1363C142.31 94.5799 141.748 96.6653 141.748 99.3921C141.748 102.119 142.31 104.224 143.432 105.708C144.555 107.151 146.059 107.874 147.944 107.874C150.591 107.873 152.375 106.589 153.298 104.023H164.245C163.363 107.953 161.498 111.041 158.651 113.287C155.804 115.532 152.294 116.656 148.124 116.656C144.836 116.656 141.908 115.954 139.342 114.55C136.815 113.147 134.83 111.141 133.387 108.535C131.983 105.928 131.281 102.881 131.281 99.3921C131.281 96.5949 131.733 94.0812 132.636 91.8511L145.383 91.4761ZM9.77521 91.9614C12.4156 93.5717 15.7164 94.3481 20.0789 94.6743C20.0771 94.7824 20.074 94.8911 20.074 95.0005C20.074 98.8904 21.1167 101.938 23.202 104.144C25.3273 106.309 28.2345 107.392 31.9236 107.392C34.4499 107.392 36.5753 106.75 38.2996 105.467C40.0641 104.184 41.3482 102.339 42.1502 99.9331H29.0965V94.857C31.8853 94.8189 34.9779 94.7289 38.4197 94.6275L51.4734 94.2427V101.918C50.7115 104.485 49.4079 106.871 47.5633 109.077C45.7588 111.282 43.4532 113.067 40.6463 114.43C37.8392 115.794 34.6704 116.475 31.1414 116.475C26.9711 116.475 23.2421 115.572 19.9539 113.768C16.7057 111.923 14.159 109.377 12.3143 106.128C10.5098 102.88 9.60724 99.171 9.60724 95.0005C9.60724 93.9588 9.66261 92.9457 9.77521 91.9614ZM105.305 92.7144C104.143 93.9575 103.561 95.7022 103.561 97.9478V116.174H93.2752V93.0113L105.363 92.6548C105.344 92.6747 105.324 92.6942 105.305 92.7144ZM126.179 92.0415C126.499 93.4189 126.66 94.9269 126.66 96.565V116.174H116.434V97.9478C116.434 95.7022 115.852 93.9575 114.689 92.7144C114.583 92.6006 114.471 92.4936 114.358 92.3902L126.179 92.0415ZM162.988 90.9575C163.521 92.1197 163.943 93.3862 164.245 94.7603H153.298C152.68 93.0426 151.677 91.8997 150.287 91.3316L162.988 90.9575Z" fill="#FAF9FE"/>
<path d="M51.5002 94.1995L38.4465 94.5843C35.0047 94.6857 31.9121 94.7747 29.1233 94.8128V92.3099H51.5002V94.1995ZM31.1086 73.4222C36.1614 73.4222 40.4119 74.646 43.8606 77.0921C47.3494 79.5382 49.6557 82.9263 50.7786 87.2571H39.4094C38.6951 85.9415 37.6817 84.9249 36.3684 84.2083L35.8352 83.931C34.4888 83.2613 32.9132 82.9261 31.1086 82.9261C27.7803 82.9261 25.1137 84.0293 23.1086 86.2347C21.1636 88.3353 20.164 91.1343 20.1057 94.6312C15.7436 94.3049 12.4432 93.5282 9.80298 91.9183C10.1411 88.9622 10.9872 86.2654 12.3411 83.8284C14.1857 80.5402 16.7326 77.9943 19.9807 76.1898C23.2289 74.3451 26.9381 73.4222 31.1086 73.4222ZM71.635 82.0843C74.8831 82.0843 77.7708 82.7658 80.2971 84.1292C82.8234 85.4926 84.7881 87.4379 86.1917 89.9642C86.7587 90.9565 87.2116 92.0148 87.5559 93.137L77.2454 93.4407C76.9503 92.8567 76.5446 92.3387 76.0256 91.889C74.8226 90.8465 73.3184 90.3255 71.5139 90.3255C69.7897 90.3256 68.3262 90.8269 67.1233 91.8294C66.5059 92.3617 66.0135 93.0129 65.6448 93.7825L55.2854 94.0882C55.6341 92.7005 56.1302 91.406 56.7766 90.2054C58.2203 87.5988 60.2257 85.5933 62.7922 84.1898C65.3588 82.7862 68.3066 82.0843 71.635 82.0843ZM113.754 82.2044C117.684 82.2044 120.812 83.4877 123.138 86.054C124.633 87.6508 125.655 89.6327 126.205 91.9984L114.385 92.347C113.262 91.3213 111.81 90.8069 110.025 90.8069C108.092 90.807 106.548 91.4087 105.391 92.6116L93.302 92.9681V82.5657H103.588V87.0169C104.631 85.5331 106.035 84.3698 107.799 83.5276C109.563 82.6455 111.549 82.2044 113.754 82.2044ZM148.152 82.0843C152.362 82.0844 155.871 83.1874 158.678 85.3929C160.55 86.8429 161.993 88.6845 163.016 90.9144L150.314 91.2884C149.627 91.0077 148.846 90.8665 147.971 90.8665C147.02 90.8665 146.166 91.0554 145.409 91.4329L132.662 91.8079C132.885 91.2565 133.135 90.7221 133.413 90.2054C134.857 87.5988 136.843 85.5933 139.369 84.1898C141.936 82.7863 144.863 82.0843 148.152 82.0843ZM179.891 90.4075C178.107 90.4689 176.212 90.5259 174.198 90.5853L168.946 90.7396L165.503 82.5657H176.992L179.891 90.4075ZM201.787 86.7806C198.841 88.5242 195.001 89.3751 189.776 89.8587L192.451 82.5657H203.58L201.787 86.7806ZM116.262 37.0843C119.51 37.0843 122.398 37.7659 124.924 39.1292C127.45 40.4927 129.416 42.4378 130.82 44.9642C132.263 47.4906 132.985 50.4384 132.985 53.8069C132.985 54.7694 132.924 55.7722 132.804 56.8148H109.526C109.686 58.8997 110.347 60.5035 111.51 61.6263C112.713 62.709 114.177 63.2513 115.902 63.2513C118.468 63.2512 120.253 62.1677 121.255 60.0023H132.202C131.641 62.2078 130.619 64.1929 129.135 65.9573C127.691 67.7217 125.867 69.1052 123.661 70.1077C121.456 71.1103 118.989 71.6116 116.262 71.6116C112.974 71.6116 110.046 70.9107 107.48 69.5071C104.913 68.1036 102.909 66.098 101.465 63.4915C100.021 60.8849 99.2991 57.8368 99.2991 54.348C99.2991 50.8593 100.001 47.8119 101.405 45.2054C102.848 42.5988 104.854 40.5933 107.42 39.1898C109.987 37.7863 112.934 37.0843 116.262 37.0843ZM152.848 37.0843C156.096 37.0843 158.984 37.7658 161.51 39.1292C164.036 40.4926 166.001 42.4379 167.405 44.9642C168.848 47.4906 169.571 50.4384 169.571 53.8069C169.571 54.7694 169.51 55.7722 169.39 56.8148H146.111C146.271 58.8999 146.933 60.5035 148.096 61.6263C149.299 62.709 150.762 63.2512 152.487 63.2513C155.053 63.2513 156.838 62.1678 157.84 60.0023H168.788C168.227 62.2077 167.205 64.193 165.721 65.9573C164.277 67.7218 162.452 69.1052 160.246 70.1077C158.041 71.1103 155.575 71.6116 152.848 71.6116C149.56 71.6116 146.632 70.9106 144.066 69.5071C141.499 68.1036 139.494 66.0981 138.05 63.4915C136.606 60.8849 135.885 57.8368 135.885 54.348C135.885 50.8593 136.587 47.8119 137.99 45.2054C139.434 42.5988 141.439 40.5933 144.005 39.1898C146.572 37.7862 149.519 37.0843 152.848 37.0843ZM71.1711 37.1448H53.968V46.0472H66.8401V54.0472H53.968V71.1312H43.6819V28.9036H71.1711V37.1448ZM96.9094 48.0921H94.0823C91.5158 48.0921 89.5901 48.6538 88.3069 49.7767C87.0238 50.8594 86.3821 52.7844 86.3821 55.5511V71.1312H76.0959V37.5657H86.3821V43.1595C87.5851 41.3148 89.0892 39.8711 90.8938 38.8284C92.6983 37.7457 94.7039 37.2044 96.9094 37.2044V48.0921ZM116.142 45.3255C114.418 45.3255 112.954 45.8269 111.751 46.8294C110.588 47.8319 109.866 49.2552 109.585 51.0999H122.458C122.458 49.3355 121.857 47.9316 120.654 46.889C119.451 45.8464 117.946 45.3255 116.142 45.3255ZM152.728 45.3255C151.003 45.3255 149.539 45.8269 148.336 46.8294C147.173 47.8319 146.452 49.2554 146.171 51.0999H159.043C159.043 49.3355 158.442 47.9316 157.239 46.889C156.036 45.8466 154.532 45.3256 152.728 45.3255Z" fill="#745DF5"/>
</svg>
